<svg xmlns="http://www.w3.org/2000/svg" width="960px" height="240px" viewBox="-1.2 -0.3 2.4 0.6"><defs><style>:root {color-scheme: dark;}path {fill: none;stroke: #fff;stroke-width: 0.008;}</style></defs><path d="M 0 0 L 0.000000 -0.035267 A 0.035267 0.035267 0 0 1 0.012062 -0.033140 Z"/><path d="M 0 0 L 0.015470 -0.042504 A 0.045232 0.045232 0 0 1 0.029075 -0.034650 Z"/><path d="M 0 0 L 0.051973 -0.061940 A 0.080856 0.080856 0 0 1 0.070024 -0.040428 Z"/><path d="M 0 0 L 0.191531 -0.110580 A 0.221160 0.221160 0 0 1 0.217800 -0.038404 Z"/><path d="M 0 0 L 0.984808 -0.173648 A 1.000000 1.000000 0 0 1 0.984808 0.173648 Z"/><path d="M 0 0 L 0.402979 0.071056 A 0.409196 0.409196 0 0 1 0.354374 0.204598 Z"/><path d="M 0 0 L 0.121124 0.069931 A 0.139862 0.139862 0 0 1 0.089902 0.107140 Z"/><path d="M 0 0 L 0.045973 0.054788 A 0.071521 0.071521 0 0 1 0.024462 0.067208 Z"/><path d="M 0 0 L 0.017762 0.048800 A 0.051932 0.051932 0 0 1 0.000000 0.051932 Z"/><path d="M 0 0 L 0.000000 0.048701 A 0.048701 0.048701 0 0 1 -0.016657 0.045764 Z"/><path d="M 0 0 L -0.020716 0.056917 A 0.060570 0.060570 0 0 1 -0.038934 0.046399 Z"/><path d="M 0 0 L -0.074741 0.089073 A 0.116277 0.116277 0 0 1 -0.100699 0.058138 Z"/><path d="M 0 0 L -0.316866 0.182943 A 0.365886 0.365886 0 0 1 -0.360327 0.063535 Z"/><path d="M 0 0 L -0.765081 0.134905 A 0.776884 0.776884 0 0 1 -0.765081 -0.134905 Z"/><path d="M 0 0 L -0.423845 -0.074735 A 0.430384 0.430384 0 0 1 -0.372723 -0.215192 Z"/><path d="M 0 0 L -0.113113 -0.065306 A 0.130611 0.130611 0 0 1 -0.083955 -0.100054 Z"/><path d="M 0 0 L -0.039863 -0.047507 A 0.062015 0.062015 0 0 1 -0.021211 -0.058275 Z"/><path d="M 0 0 L -0.013691 -0.037615 A 0.040029 0.040029 0 0 1 -0.000000 -0.040029 Z"/></svg>